<mxfile host="app.diagrams.net" modified="2023-06-01T16:13:31.570Z" agent="Mozilla/5.0 (X11; Linux x86_64) AppleWebKit/537.36 (KHTML, like Gecko) Chrome/109.0.0.0 Safari/537.36" version="21.3.4" etag="n6AuNYn0ha9bKCdqEwRJ" type="github">
  <diagram name="Page-1" id="2tjgdu6FyNnZksxn4xS8">
    <mxGraphModel>
      <root>
        <mxCell id="0" />
        <mxCell id="1" parent="0" />
      </root>
    </mxGraphModel>
  </diagram>
</mxfile>
